<svg xmlns="http://www.w3.org/2000/svg" viewBox="0 0 1600 900"><defs><linearGradient id="g" x1="0" x2="1"><stop stop-color="#101313"/><stop offset="1" stop-color="#34312d"/></linearGradient><radialGradient id="o"><stop stop-color="#5b6060"/><stop offset="1" stop-color="#0b0d0d"/></radialGradient></defs><rect width="1600" height="900" fill="url(#g)"/><g opacity=".25" fill="#77807d"><rect x="120" y="160" width="180" height="260"/><rect x="360" y="190" width="130" height="230"/><rect x="1050" y="135" width="300" height="300"/></g><g transform="translate(120 470)" fill="#777f7e" opacity=".8"><ellipse cx="130" cy="130" rx="112" ry="96"/><ellipse cx="330" cy="115" rx="112" ry="96"/><ellipse cx="535" cy="128" rx="112" ry="96"/></g><g transform="translate(920 470)"><path d="M0 170 80 0h140l90 170-60 240H60z" fill="url(#o)"/><path d="M260 180 330 40h120l75 140-50 190H310z" fill="#111"/></g><g opacity=".35"><circle cx="900" cy="360" r="130" fill="#b86537"/><circle cx="1240" cy="420" r="100" fill="#b86537"/></g><path d="M0 720c230-80 390-40 600-20 270 26 420-90 700-32 130 26 210 52 300 32v200H0z" fill="#f5f5f0" opacity=".16"/></svg>