<svg xmlns="http://www.w3.org/2000/svg" viewBox="0 0 1000 500"><g fill="#aeb8b5" fill-opacity=".36" stroke="#d7ddd9" stroke-opacity=".45" stroke-width="1.3"><path d="M157 88l48-22 71 10 45 27 8 39-22 37 25 28-12 45 27 43-21 37-65-5-33 25-50-7-39-39 14-56-26-38 8-55-24-25 20-54z"/><path d="M250 330l39 28 20 52-23 48-44-20-31-54 10-42z"/><path d="M455 92l73-22 85 13 48 32-7 38-45 12-15 33 35 45-18 52-51 3-40-31-52 6-49-36 9-56-33-32z"/><path d="M553 256l58 16 32 47-9 66-37 56-50-12-23-55 10-74z"/><path d="M636 165l52-20 80 17 60 45 44 10 50 52-30 42-78-7-56 22-57-20-44-54-45-14z"/><path d="M768 314l58 12 49 48 31 70-65 8-58-34-34-55z"/><path d="M764 74l61-14 76 17 39 28-37 16-80-4-67-16z"/><path d="M392 72l38-18 55 10-12 26-59 4z"/><path d="M905 168l36 14 28 27-25 9-42-21z"/><path d="M99 94l35-18 30 15-18 30-42-2z"/></g></svg>