<svg xmlns="http://www.w3.org/2000/svg" viewBox="0 0 1000 500" role="img" aria-label="Complete world map"><defs><style>.land{fill:#aeb8b5;fill-opacity:.34;stroke:#d7ddd9;stroke-opacity:.48;stroke-width:1.15;vector-effect:non-scaling-stroke}.ice{fill:#aeb8b5;fill-opacity:.16;stroke:#d7ddd9;stroke-opacity:.26;stroke-width:1;vector-effect:non-scaling-stroke}.isle{fill:#aeb8b5;fill-opacity:.3;stroke:#d7ddd9;stroke-opacity:.42;stroke-width:.85;vector-effect:non-scaling-stroke}</style></defs><g><path class="land" d="M112 108 148 84 202 64 255 63 303 79 332 111 320 142 337 166 319 190 288 198 260 188 237 203 206 197 186 178 158 176 128 158 100 158 74 137 86 119z"/><path class="land" d="M70 86 102 60 151 42 208 39 270 50 306 66 266 74 224 72 183 82 148 95 121 107 88 106z"/><path class="land" d="M185 199 225 211 253 235 248 257 265 276 249 294 211 287 184 265 153 252 146 230 164 212z"/><path class="land" d="M255 286 286 316 304 361 296 416 269 462 240 436 218 386 213 337 232 304z"/><path class="land" d="M429 120 469 93 522 89 565 105 577 132 552 148 519 142 494 158 455 153 425 139z"/><path class="land" d="M478 154 526 155 563 182 590 236 583 307 552 388 508 398 468 366 446 309 451 247 470 202z"/><path class="land" d="M552 118 625 86 705 76 785 90 854 132 902 182 916 228 884 252 825 236 775 248 723 226 682 202 629 208 590 185 557 164z"/><path class="land" d="M636 213 683 226 704 259 690 295 643 291 617 258z"/><path class="land" d="M713 260 748 285 771 326 755 354 715 338 701 299z"/><path class="land" d="M778 318 826 334 863 373 852 420 798 414 764 376z"/><path class="land" d="M792 224 835 227 873 256 867 289 822 285 786 263z"/><path class="land" d="M452 60 502 31 556 32 584 55 560 78 498 81 456 74z"/><path class="ice" d="M16 456 92 445 180 455 276 443 360 454 458 444 552 456 642 446 748 456 842 445 984 456 984 500 16 500z"/><path class="isle" d="M405 130 420 121 435 130 426 145 410 144z"/><path class="isle" d="M438 148 450 141 462 149 454 161 440 160z"/><path class="isle" d="M843 156 860 151 874 164 865 179 847 174z"/><path class="isle" d="M872 184 887 189 890 205 874 207 862 196z"/><path class="isle" d="M878 236 896 239 908 254 898 270 881 264z"/><path class="isle" d="M742 244 759 249 763 267 748 276 734 262z"/><path class="isle" d="M808 271 835 277 849 296 830 309 805 298z"/><path class="isle" d="M571 320 591 326 604 352 587 374 566 361z"/><path class="isle" d="M858 418 882 432 900 459 876 470 850 448z"/><path class="isle" d="M914 421 934 412 950 426 937 445 918 439z"/></g></svg>