<svg xmlns="http://www.w3.org/2000/svg" viewBox="0 0 1000 500" role="img" aria-label="Detailed filled world map"><defs><linearGradient id="land" x1="0" y1="0" x2="1" y2="1"><stop stop-color="#c9d1cd" stop-opacity=".58"/><stop offset="1" stop-color="#78837f" stop-opacity=".42"/></linearGradient><linearGradient id="land2" x1="0" y1="0" x2="0" y2="1"><stop stop-color="#d7ddd9" stop-opacity=".5"/><stop offset="1" stop-color="#8c9692" stop-opacity=".34"/></linearGradient><style>.land{fill:url(#land)}.land-soft{fill:url(#land2)}.island{fill:#aeb8b5;fill-opacity:.43}.border{fill:none;stroke:#eef2ee;stroke-opacity:.15;stroke-width:.8;vector-effect:non-scaling-stroke}.coast-glow{fill:none;stroke:#ffffff;stroke-opacity:.08;stroke-width:4;vector-effect:non-scaling-stroke}.ice{fill:#aeb8b5;fill-opacity:.13}</style></defs><rect width="1000" height="500" fill="none"/><g opacity=".94"><path class="coast-glow" d="M55 105C84 76 125 56 176 43c65-17 128-13 178 13 30 15 44 38 38 63-8 31-47 45-70 62 24 26 26 58-2 79-27 21-71 13-101 5-36-10-64-5-94-23-41-24-56-58-38-90-21-7-50-21-32-47Z"/><path class="land" d="M56 106C83 77 126 56 176 44c62-16 125-13 176 12 24 12 42 28 44 48-24 6-50 6-74 14-32 10-55 30-88 42-34 12-68 7-102 4-18 8-37 14-55 11-21-4-33-26-21-69Z"/><path class="land" d="M84 183c33-7 64-26 96-41 37-18 76-31 118-36 28-4 59-4 86 5 21 7 36 22 48 40-9 28-16 56-7 83 9 27 38 43 52 68-21 21-37 48-68 57-34 9-68-7-100-15-31-8-57-4-88-24-23-15-49-31-79-29-23 2-45-1-61-19-15-18-17-41-3-61 4-10 5-19 10-28Z"/><path class="land-soft" d="M201 292c29 7 53 25 77 42 22 15 42 35 57 59 11 18 23 47 11 66-9 14-34 6-48-3-24-15-41-38-54-64-12-24-24-48-45-65-10-9-13-25 2-35Z"/><path class="land-soft" d="M229 324c29 16 45 50 54 82 5 18 8 38 0 55-23-22-42-51-53-83-6-18-8-37-1-54Z"/><path class="coast-glow" d="M423 122c24-24 58-39 94-42 45-5 94 7 123 40 27 31 12 71-14 95-20 18-47 24-71 38 26 31 42 67 36 108-7 48-39 91-80 113-46-14-82-54-100-99-18-44-15-91 1-134 10-28-9-78 11-119Z"/><path class="land" d="M423 123c26-23 59-37 95-41 45-5 93 8 120 42 12 16 18 34 14 53-29 0-54 12-78 27-29 18-64 20-96 10-28-8-53-23-78-37 5-20 8-39 23-54Z"/><path class="land-soft" d="M487 198c39 18 73 41 92 80 19 38 15 81 1 121-11 30-31 58-57 76-43-16-76-52-93-94-18-44-16-93 1-137 9-24 30-35 56-46Z"/><path class="land-soft" d="M535 251c29 24 48 56 51 96 2 39-12 77-36 106-17-31-22-70-19-107 2-32-2-65 4-95Z"/><path class="coast-glow" d="M555 126c44-28 91-46 143-49 70-5 138 14 196 52 49 32 83 72 84 117-2 31-29 50-59 53-48 6-90-19-136-24-50-5-89 22-137 15-36-5-63-32-87-56-26-27-36-77-4-108Z"/><path class="land" d="M554 127c46-29 94-47 148-49 70-4 139 16 196 55 39 27 69 62 78 102-18 17-43 21-68 17-34-6-63-26-98-29-48-4-91 14-138 9-40-5-78-24-116-40-9-22-20-44-2-65Z"/><path class="land-soft" d="M628 218c33 15 69 22 105 18 35-4 70-14 105-7 28 6 55 20 84 16-18 30-59 42-93 50-43 10-82 0-122-12-31-10-61-24-79-65Z"/><path class="land-soft" d="M651 247c31 22 58 49 71 86 10 28-3 60-24 79-34-15-55-48-64-83-7-29 1-57 17-82Z"/><path class="land" d="M785 306c51 9 95 38 122 83 20 34 15 68-6 92-57-11-103-49-125-99-12-28-9-54 9-76Z"/><path class="land-soft" d="M808 332c35 7 65 28 84 59 12 20 12 42 0 59-37-13-68-42-83-79-5-13-7-26-1-39Z"/><path class="land" d="M449 61c30-29 76-43 122-37 26 3 50 14 66 35-17 25-51 37-84 37-36 0-73-8-104-35Z"/><path class="land-soft" d="M891 170c31 8 60 29 78 55 14 20 14 42 2 61-31-12-55-37-74-63-12-17-18-35-6-53Z"/><path class="land-soft" d="M838 282c29 1 57 15 77 38 16 19 20 42 9 62-34-2-65-21-84-48-11-16-18-35-2-52Z"/><path class="land-soft" d="M922 392c24 3 45 17 58 38-10 18-31 28-52 28-17-15-25-43-6-66Z"/><path class="ice" d="M12 456c73-14 135-2 203 0 79 3 152-20 230-5 73 14 141-1 214-7 84-7 160 18 244 9 31-3 61-8 91-1v48H12Z"/></g><g opacity=".45"><path class="island" d="M407 132c12-13 31-19 47-10 10 6 12 22 2 31-15 14-43 7-49-21Z"/><path class="island" d="M449 161c16-8 32-2 41 11-10 14-30 17-44 7-7-5-6-13 3-18Z"/><path class="island" d="M872 182c17 1 32 12 40 27-11 12-33 12-46 0-9-9-8-23 6-27Z"/><path class="island" d="M890 236c25 3 46 20 57 42-19 17-50 13-67-5-10-11-7-27 10-37Z"/><path class="island" d="M748 259c21 8 35 28 34 50-24 10-51-5-58-29-4-14 8-26 24-21Z"/><path class="island" d="M833 416c30 13 55 38 67 70-37-2-69-23-88-53-8-12 4-23 21-17Z"/></g><g opacity=".45"><path class="border" d="M136 111c42-9 84-25 128-25 35 0 69 10 100 25"/><path class="border" d="M167 172c35-22 73-40 116-50"/><path class="border" d="M232 207c32 12 67 18 100 5"/><path class="border" d="M243 333c28 20 47 50 59 84"/><path class="border" d="M475 125c47 13 93 15 139-3"/><path class="border" d="M479 202c31 23 65 37 104 38"/><path class="border" d="M477 305c42 6 75 27 100 60"/><path class="border" d="M610 142c54-28 113-42 174-34"/><path class="border" d="M665 198c47-17 96-29 148-20"/><path class="border" d="M721 238c26 26 55 43 93 46"/><path class="border" d="M656 276c22 20 41 43 57 70"/><path class="border" d="M804 334c34 16 63 40 86 70"/></g></svg>