<svg xmlns="http://www.w3.org/2000/svg" viewBox="0 0 1000 500" preserveAspectRatio="none" role="img" aria-label="Complete local world map"><defs><linearGradient id="land" x1="0" y1="0" x2="1" y2="1"><stop stop-color="#d5d8d3" stop-opacity=".68"/><stop offset="1" stop-color="#8a908b" stop-opacity=".52"/></linearGradient><style>.land{fill:url(#land);stroke:#eef2ee;stroke-opacity:.16;stroke-width:1.1;vector-effect:non-scaling-stroke}.island{fill:#b9c0bc;fill-opacity:.5;stroke:#eef2ee;stroke-opacity:.12;stroke-width:.8;vector-effect:non-scaling-stroke}.ice{fill:#c3c8c4;fill-opacity:.18}</style></defs><rect width="1000" height="500" fill="#66645e"/><g opacity=".95"><path class="land" d="M33 111c37-34 93-55 155-68 55-11 126-15 176 15 31 18 44 47 28 76-17 31-59 40-82 64 31 33 23 74-16 93-45 23-91 0-132-13-37-12-79-2-111-32-31-29-28-68 3-96-14-12-32-24-21-39z"/><path class="land" d="M78 194c43-28 91-53 144-70 45-14 98-24 144-5 39 16 69 48 67 88-2 35 34 56 56 85-23 29-56 53-96 59-42 6-75-18-114-25-48-9-95 5-135-27-35-28-75-63-66-105z"/><path class="land" d="M210 318c41 17 71 52 88 94 11 29 6 55-17 73-35-23-59-63-73-107-7-22-16-46 2-60z"/><path class="land" d="M399 126c39-36 97-52 156-42 53 9 102 41 120 88-26 21-61 31-96 33-43 2-82-18-123-19-33-1-64-14-57-60z"/><path class="land" d="M461 187c45 13 89 31 121 67 33 37 39 89 24 136-12 39-41 73-78 91-47-24-79-69-94-121-17-58-4-118 27-173z"/><path class="land" d="M579 135c52-40 121-60 197-52 76 8 143 40 199 89-12 49-57 73-108 67-48-6-91-33-141-28-51 5-98 25-148 10-34-11-50-52 1-86z"/><path class="land" d="M634 221c54 14 111-1 165 8 54 10 96 48 145 32-18 38-67 64-119 70-52 7-98-14-143-36-27-13-48-34-48-74z"/><path class="land" d="M660 270c42 28 70 71 76 124-28 27-72 25-104-4-37-34-40-82-17-123 12-22 28-18 45 3z"/><path class="land" d="M763 315c55 14 101 48 130 96 22 37 16 68-8 88-60-15-108-58-130-113-10-25-8-49 8-71z"/><path class="land" d="M865 171c37 11 70 38 92 74 18 30 14 60-7 79-43-14-75-50-96-88-13-23-12-47 11-65z"/><path class="land" d="M838 292c35 2 68 21 91 50 20 26 23 54 8 78-42-2-78-27-100-61-14-22-17-46 1-67z"/><path class="land" d="M910 409c27 4 50 22 64 46-12 22-38 33-63 28-16-18-20-48-1-74z"/><path class="land" d="M443 56c35-30 87-43 137-35 31 5 57 21 74 47-22 26-62 38-101 35-43-3-84-18-110-47z"/><path class="island" d="M402 142c20-16 47-17 61 2-11 26-48 28-61-2z"/><path class="island" d="M438 166c19-9 39-3 50 13-12 18-38 22-55 8-8-7-5-16 5-21z"/><path class="island" d="M814 273c22 9 38 31 37 55-27 12-58-5-66-32-5-16 11-29 29-23z"/><path class="island" d="M894 231c28 4 52 24 63 50-23 20-59 15-79-7-12-14-4-34 16-43z"/><path class="island" d="M829 423c35 15 63 45 77 82-43-3-80-27-102-63-9-15 6-27 25-19z"/><path class="ice" d="M0 456c90-12 167 3 252-2 76-5 140-20 216-5 81 16 158-6 241-10 88-4 171 17 291 11v50H0z"/></g></svg>